<?xml version="1.0" encoding="UTF-8"?>
<svg version="1.1" xmlns="http://www.w3.org/2000/svg" width="512" height="512">
<path d="M0 0 C1.28237549 0.00563965 2.56475098 0.0112793 3.88598633 0.01708984 C12.88345507 0.13262533 21.02831231 0.71963589 29.6875 3.3125 C30.73091553 3.61051514 30.73091553 3.61051514 31.79541016 3.91455078 C58.52156058 11.63903894 85.04328594 28.8461789 100.6875 52.3125 C104.46955891 51.0518137 105.38546822 49.44415391 107.8125 46.3125 C127.58785169 21.72778278 156.35048999 4.87121682 187.6875 0.3125 C204.13053707 -0.58545133 220.90910695 -0.86735459 236.6875 4.3125 C237.37295898 4.53212402 238.05841797 4.75174805 238.76464844 4.97802734 C269.38472663 15.02590716 293.09499397 35.86728818 307.69873047 64.31152344 C322.79207261 94.85597584 325.04491376 130.46015885 314.5625 162.75 C304.6855321 191.57494311 287.60125994 218.21334476 266.6875 240.3125 C265.57707471 241.57786835 264.47277414 242.8486406 263.375 244.125 C253.81659315 255.08057537 243.95587856 265.90388981 232.90625 275.375 C230.70393225 277.29815071 228.55513554 279.27266794 226.41235352 281.26171875 C220.36474586 286.87042587 214.11673662 292.14242645 207.6875 297.3125 C206.50538715 298.2850947 205.32446594 299.25913895 204.14453125 300.234375 C187.290924 314.12610726 169.68656307 326.95169765 151.6875 339.3125 C150.89537109 339.86099609 150.10324219 340.40949219 149.28710938 340.97460938 C129.79254278 354.44855837 112.38554289 363.76581655 87.98828125 359.6953125 C70.76175925 354.90663603 56.00749771 342.49976382 41.6875 332.3125 C40.8610498 331.72742676 40.03459961 331.14235352 39.18310547 330.53955078 C15.0078018 313.4067715 -8.1077878 294.83511412 -29.83154297 274.68017578 C-31.35053551 273.2773739 -32.87880882 271.88539203 -34.41015625 270.49609375 C-42.50546624 263.14598538 -50.4074079 255.69328118 -57.5234375 247.375 C-58.75348976 245.95694849 -60.01055377 244.56202322 -61.2890625 243.1875 C-93.25532457 208.78017792 -118.72763401 165.0481976 -117.59765625 116.99609375 C-116.23211824 83.166175 -102.23470713 51.90376022 -77.5625 28.625 C-55.59725442 9.71337466 -28.94860262 -0.13341248 0 0 Z " fill="#F8585E" transform="translate(154.3125,75.6875)"/>
<path d="M0 0 C1.28237549 0.00563965 2.56475098 0.0112793 3.88598633 0.01708984 C12.88345507 0.13262533 21.02831231 0.71963589 29.6875 3.3125 C30.73091553 3.61051514 30.73091553 3.61051514 31.79541016 3.91455078 C58.52156058 11.63903894 85.04328594 28.8461789 100.6875 52.3125 C104.46955891 51.0518137 105.38546822 49.44415391 107.8125 46.3125 C127.58785169 21.72778278 156.35048999 4.87121682 187.6875 0.3125 C204.13053707 -0.58545133 220.90910695 -0.86735459 236.6875 4.3125 C237.37295898 4.53212402 238.05841797 4.75174805 238.76464844 4.97802734 C269.38472663 15.02590716 293.09499397 35.86728818 307.69873047 64.31152344 C322.79207261 94.85597584 325.04491376 130.46015885 314.5625 162.75 C304.6855321 191.57494311 287.60125994 218.21334476 266.6875 240.3125 C265.57707471 241.57786835 264.47277414 242.8486406 263.375 244.125 C253.81659315 255.08057537 243.95587856 265.90388981 232.90625 275.375 C230.70393225 277.29815071 228.55513554 279.27266794 226.41235352 281.26171875 C220.36474586 286.87042587 214.11673662 292.14242645 207.6875 297.3125 C206.50538715 298.2850947 205.32446594 299.25913895 204.14453125 300.234375 C187.290924 314.12610726 169.68656307 326.95169765 151.6875 339.3125 C150.89537109 339.86099609 150.10324219 340.40949219 149.28710938 340.97460938 C129.79254278 354.44855837 112.38554289 363.76581655 87.98828125 359.6953125 C70.76175925 354.90663603 56.00749771 342.49976382 41.6875 332.3125 C40.8610498 331.72742676 40.03459961 331.14235352 39.18310547 330.53955078 C15.0078018 313.4067715 -8.1077878 294.83511412 -29.83154297 274.68017578 C-31.35053551 273.2773739 -32.87880882 271.88539203 -34.41015625 270.49609375 C-42.50546624 263.14598538 -50.4074079 255.69328118 -57.5234375 247.375 C-58.75348976 245.95694849 -60.01055377 244.56202322 -61.2890625 243.1875 C-93.25532457 208.78017792 -118.72763401 165.0481976 -117.59765625 116.99609375 C-116.23211824 83.166175 -102.23470713 51.90376022 -77.5625 28.625 C-55.59725442 9.71337466 -28.94860262 -0.13341248 0 0 Z M-63.3125 51.3125 C-63.98667969 51.90160156 -64.66085938 52.49070312 -65.35546875 53.09765625 C-80.70558771 67.03838305 -89.74650867 90.00276746 -91.3125 110.3125 C-93.43993937 157.65111217 -70.85062632 194.20013345 -40 228.3125 C-33.85333524 234.92823523 -27.43598957 241.29150118 -21.0625 247.6875 C-20.54271576 248.21005371 -20.02293152 248.73260742 -19.48739624 249.27099609 C-13.61009092 255.17113873 -7.67084525 260.92605329 -1.3125 266.3125 C-0.19430624 267.28530289 0.92291157 268.25922894 2.0390625 269.234375 C9.40598625 275.61599914 16.90580137 281.77902726 24.62792969 287.72558594 C26.10210406 288.86144812 27.57383513 290.00048412 29.04394531 291.14160156 C40.51088454 300.03767695 52.13098778 308.58580912 64.20166016 316.64453125 C66.89978813 318.45494279 69.58100748 320.28890904 72.26171875 322.125 C74.13247583 323.39632889 76.00356248 324.66717295 77.875 325.9375 C78.73609375 326.52998535 79.5971875 327.1224707 80.484375 327.73291016 C89.01215621 333.47648424 96.27744286 336.39103851 106.6875 335.3125 C116.01106143 333.0480233 123.51642622 327.79980689 131.25 322.375 C132.49408321 321.51459129 133.73871856 320.65498041 134.98388672 319.79614258 C138.56454426 317.31964369 142.12791753 314.81915741 145.6875 312.3125 C146.5964502 311.67473633 147.50540039 311.03697266 148.44189453 310.37988281 C168.51930612 296.24403342 188.24110235 281.11286986 206.31640625 264.47265625 C207.61181024 263.29249413 208.91485686 262.11981266 210.25170898 260.98681641 C216.74044075 255.46042935 222.73708305 249.44901221 228.75952148 243.42578125 C230.61227468 241.57521033 232.47288706 239.73279924 234.33398438 237.890625 C240.5144509 231.7388866 246.3955578 225.54479346 251.80419922 218.69384766 C253.76411165 216.21562808 255.80814593 213.82685633 257.875 211.4375 C282.1041836 181.76737692 297.33599277 149.16120049 294.6875 110.3125 C291.77853916 87.91771739 283.53510776 68.63863233 267.6875 52.3125 C267.07519531 51.62671875 266.46289062 50.9409375 265.83203125 50.234375 C256.31525187 39.92622164 243.82356373 33.6833247 230.6875 29.3125 C229.46804688 28.89871094 228.24859375 28.48492187 226.9921875 28.05859375 C203.88020406 21.24838918 179.71989117 25.17437887 158.6875 36.3125 C139.01697219 47.78697456 124.45881238 63.53493978 112.671875 82.75390625 C109.51041686 86.83019579 106.28508222 89.05574571 101.1875 89.875 C96.35421669 89.09822233 93.37813663 86.50075421 90.44580078 82.70532227 C89.25475721 80.9314546 88.12179872 79.13089574 87 77.3125 C71.73473521 53.62080905 49.60733432 33.91209097 21.57421875 27.2890625 C-9.83925729 20.63645633 -40.14232885 28.86264505 -63.3125 51.3125 Z " fill="#3A0A0E" transform="translate(154.3125,75.6875)"/>
</svg>
